<svg xmlns="http://www.w3.org/2000/svg" width="18.065" height="20" viewBox="0 0 18.065 20"><defs><style>.a,.b,.c{fill:#434343;}.a{fill-rule:evenodd;}.c{font-size:10px;font-family:Roboto-Medium, Roboto;font-weight:500;letter-spacing:0.15em;}</style></defs><path class="a" d="M19.024,10.186H3.54V20.864a1.242,1.242,0,0,0,1.29,1.186h12.9a1.242,1.242,0,0,0,1.29-1.186ZM2.25,9V20.864a2.483,2.483,0,0,0,2.581,2.373h12.9a2.483,2.483,0,0,0,2.581-2.373V9Z" transform="translate(-2.25 -3.237)"/><path class="b" d="M15.888,2.772a4.117,4.117,0,0,0-4.117,4.117H10.125a5.763,5.763,0,0,1,11.526,0H20A4.117,4.117,0,0,0,15.888,2.772Z" transform="translate(-6.856 -1.125)"/><text class="c" transform="translate(8.775 17)"><tspan x="-2.842" y="0">1</tspan></text></svg>