<svg xmlns="http://www.w3.org/2000/svg" width="13.609" height="17.012" viewBox="0 0 13.609 17.012"><defs><style>.a{fill:#3d43ac;}</style></defs><g transform="translate(0)"><path class="a" d="M15.4,15.8A3.4,3.4,0,1,0,12,12.4,3.406,3.406,0,0,0,15.4,15.8Zm0-5.1a1.7,1.7,0,1,1-1.7,1.7A1.7,1.7,0,0,1,15.4,10.7Z" transform="translate(-8.597 -5.598)"/><path class="a" d="M12.311,19.854a.849.849,0,0,0,.987,0c.259-.183,6.336-4.571,6.311-10.049A6.8,6.8,0,0,0,6,9.8c-.025,5.482,6.053,9.87,6.311,10.053ZM12.8,4.7a5.11,5.11,0,0,1,5.1,5.108c.018,3.775-3.732,7.164-5.1,8.276-1.371-1.113-5.121-4.5-5.1-8.28a5.109,5.109,0,0,1,5.1-5.1Z" transform="translate(-6 -3)"/></g></svg>