<svg xmlns="http://www.w3.org/2000/svg" width="17.011" height="17.011" viewBox="0 0 17.011 17.011"><defs><style>.a{fill:none;}.b{fill:#3d43ac;}</style></defs><path class="a" d="M16.7,20.523l1.706-1.705-2.2-2.2-1.1,1.1a.843.843,0,0,1-.776.231,8.637,8.637,0,0,1-3.829-1.931,8.637,8.637,0,0,1-1.931-3.829.849.849,0,0,1,.231-.776l1.1-1.1-2.2-2.2L6,9.818a11.263,11.263,0,0,0,3.157,7.548A11.259,11.259,0,0,0,16.7,20.524Z" transform="translate(-4.299 -5.214)"/><path class="b" d="M15.389,20.011h.024a1.68,1.68,0,0,0,1.195-.5l2.307-2.307a.849.849,0,0,0,0-1.2l-3.4-3.4a.849.849,0,0,0-1.2,0l-1.356,1.356A6.368,6.368,0,0,1,10.409,12.6a6.372,6.372,0,0,1-1.356-2.545L10.409,8.7a.849.849,0,0,0,0-1.2l-3.4-3.4a.876.876,0,0,0-1.2,0L3.5,6.4A1.7,1.7,0,0,0,3,7.622a13.019,13.019,0,0,0,3.656,8.734,13.012,13.012,0,0,0,8.734,3.655ZM6.407,5.9l2.2,2.2-1.1,1.1a.847.847,0,0,0-.231.776A8.637,8.637,0,0,0,9.207,13.8a8.637,8.637,0,0,0,3.829,1.931.845.845,0,0,0,.776-.231l1.1-1.1,2.2,2.2-1.706,1.705a11.261,11.261,0,0,1-7.547-3.157A11.261,11.261,0,0,1,4.7,7.6L6.406,5.9Zm11.9,4.755h1.7A7.491,7.491,0,0,0,12.347,3V4.7A5.762,5.762,0,0,1,18.31,10.654Z" transform="translate(-3 -3)"/><path class="b" d="M19.5,10.7c1.789,0,2.552.763,2.552,2.552h1.7C23.751,10.51,22.241,9,19.5,9Z" transform="translate(-10.143 -5.598)"/></svg>