<svg xmlns="http://www.w3.org/2000/svg" width="16.685" height="11.679" viewBox="0 0 16.685 11.679"><defs><style>.a{fill:#485665;}.b{fill:#66becc;}</style></defs><g transform="translate(-134.744 -338.033)"><g transform="translate(134.745 338.033)"><path class="a" d="M148.67,349.712H135.579a.834.834,0,1,1,0-1.668H148.67a1.093,1.093,0,0,0,1.091-1.091v-6.16a1.093,1.093,0,0,0-1.091-1.092h-6.545a.834.834,0,1,1,0-1.668h6.545a2.763,2.763,0,0,1,2.76,2.76v6.16A2.762,2.762,0,0,1,148.67,349.712Z" transform="translate(-134.745 -338.033)"/></g><g transform="translate(134.744 342.076)"><path class="a" d="M135.579,356.745a.835.835,0,0,1-.811-1.031c.065-.269,1.657-6.6,5.773-6.6h6.888a.834.834,0,0,1,0,1.668h-6.888c-2.333,0-3.789,3.85-4.153,5.332A.835.835,0,0,1,135.579,356.745Z" transform="translate(-134.744 -349.109)"/></g><g transform="translate(139.921 345.167)"><g transform="translate(0 0)"><path class="b" d="M150.383,358.305a.727.727,0,1,1-.727-.727A.728.728,0,0,1,150.383,358.305Z" transform="translate(-148.928 -357.578)"/></g></g><g transform="translate(143.322 345.167)"><g transform="translate(0 0)"><path class="b" d="M159.7,358.305a.727.727,0,1,1-.727-.727A.728.728,0,0,1,159.7,358.305Z" transform="translate(-158.246 -357.578)"/></g></g><g transform="translate(146.723 345.167)"><path class="b" d="M169.019,358.305a.727.727,0,1,1-.727-.727A.728.728,0,0,1,169.019,358.305Z" transform="translate(-167.564 -357.578)"/></g></g></svg>