<svg xmlns="http://www.w3.org/2000/svg" width="18.436" height="10.978" viewBox="0 0 18.436 10.978"><defs><style>.a{opacity:0.7;}.b{fill:#99e0e0;}.c{fill:#48bfbf;}.d{fill:#485665;}</style></defs><g transform="translate(-234.363 -27.016)"><g class="a" transform="translate(235.458 30.092)"><path class="b" d="M253.531,46.872a2.775,2.775,0,0,1-1.347-.3,4.332,4.332,0,0,0-3.656,0,3.136,3.136,0,0,1-2.695,0,4.33,4.33,0,0,0-3.655,0,3.135,3.135,0,0,1-2.694,0,3.927,3.927,0,0,0-1.828-.4c-.292,0-.152.2-.152.454s-.14.467.152.467h.04l.893,2.37a.586.586,0,0,1,.265-.063,3.092,3.092,0,0,1,1.621.421,2.148,2.148,0,0,0,2.15,0,3.33,3.33,0,0,1,3.241,0,2.15,2.15,0,0,0,2.151,0,3.329,3.329,0,0,1,3.24,0,1.959,1.959,0,0,0,1.076.288.6.6,0,0,1,.132.015l.792-2.329.275-.809v.306C253.531,47.029,253.822,46.872,253.531,46.872Z" transform="translate(-237.47 -46.163)"/><path class="c" d="M254.037,56.047a.605.605,0,0,0-.132-.015,1.959,1.959,0,0,1-1.076-.288,3.329,3.329,0,0,0-3.24,0,2.15,2.15,0,0,1-2.151,0,3.33,3.33,0,0,0-3.241,0,2.148,2.148,0,0,1-2.15,0,3.092,3.092,0,0,0-1.621-.421.586.586,0,0,0-.265.063.453.453,0,0,0-.263.4.5.5,0,0,0,.528.461h.057l1.07,2.84H253l.726-2.136c.056,0,.113,0,.174,0a.5.5,0,0,0,.527-.461A.476.476,0,0,0,254.037,56.047Z" transform="translate(-239.042 -52.094)"/></g><g transform="translate(234.363 27.016)"><path class="d" d="M243.581,48.411h-5.163c-.479,0-1.34-.209-1.727-1.605-.715-2.575-2.295-8.651-2.31-8.711a.528.528,0,1,1,1.021-.266c.016.061,1.594,6.127,2.306,8.7.154.552.392.831.71.831h5.163a.528.528,0,1,1,0,1.056Z" transform="translate(-234.363 -37.433)"/></g><g transform="translate(243.053 27.016)"><path class="d" d="M264.71,48.411h-5.164a.528.528,0,1,1,0-1.056h5.164c.318,0,.556-.28.71-.831.712-2.568,2.29-8.635,2.306-8.7a.528.528,0,1,1,1.021.266c-.016.061-1.595,6.136-2.31,8.711C266.049,48.2,265.188,48.411,264.71,48.411Z" transform="translate(-259.018 -37.433)"/></g></g></svg>