<svg xmlns="http://www.w3.org/2000/svg" width="27.502" height="20.168" viewBox="0 0 27.502 20.168"><defs><style>.a{fill:#434343;}</style></defs><g transform="translate(-1144.198 -1517.916)"><path class="a" d="M16.88,28.833H3.917a.917.917,0,1,1,0-1.833H16.88a.917.917,0,0,1,0,1.833Z" transform="translate(1141.198 1509.25)"/><path class="a" d="M29.585,18.833H3.917a.917.917,0,1,1,0-1.833H29.585a.917.917,0,0,1,0,1.833Z" transform="translate(1141.198 1510.083)"/><path class="a" d="M29.585,8.833H3.917A.917.917,0,1,1,3.917,7H29.585a.917.917,0,0,1,0,1.833Z" transform="translate(1141.198 1510.916)"/></g></svg>