<svg xmlns="http://www.w3.org/2000/svg" width="16.685" height="17.014" viewBox="0 0 16.685 17.014"><defs><style>.a{fill:#485665;}</style></defs><g transform="translate(-237.659 -332.915)"><path class="a" d="M251.585,348.935H238.494a.834.834,0,1,1,0-1.668h13.091a1.093,1.093,0,0,0,1.092-1.092v-6.16a1.093,1.093,0,0,0-1.092-1.091H245.04a.834.834,0,1,1,0-1.668h6.546a2.763,2.763,0,0,1,2.76,2.759v6.16A2.763,2.763,0,0,1,251.585,348.935Z" transform="translate(0 -2.757)"/><path class="a" d="M238.494,355.969a.853.853,0,0,1-.2-.024.834.834,0,0,1-.612-1.007c.065-.269,1.657-6.605,5.774-6.605h6.888a.834.834,0,1,1,0,1.668h-6.888c-2.333,0-3.788,3.85-4.153,5.333A.835.835,0,0,1,238.494,355.969Z" transform="translate(0 -9.79)"/><path class="a" d="M253.775,349.929a.831.831,0,0,1-.61-.266l-14.3-15.345a.834.834,0,1,1,1.221-1.138l14.3,15.345a.834.834,0,0,1-.61,1.4Z" transform="translate(-0.623)"/></g></svg>