<svg xmlns="http://www.w3.org/2000/svg" width="18.436" height="13.945" viewBox="0 0 18.436 13.945"><defs><style>.a{fill:#99e0e0;}.b{fill:#d6d6d6;}.c{fill:#2bbfbf;}.d{fill:#485665;}</style></defs><g transform="translate(-344.154 -139.18)"><path class="a" d="M363.323,157.039a2.782,2.782,0,0,1-1.348-.3,4.327,4.327,0,0,0-3.655,0,3.139,3.139,0,0,1-2.695,0,4.328,4.328,0,0,0-3.656,0,3.137,3.137,0,0,1-2.693,0,3.925,3.925,0,0,0-1.828-.4c-.292,0-.152.2-.152.454s-.14.467.152.467h.04l.892,2.37a.582.582,0,0,1,.266-.063,3.087,3.087,0,0,1,1.62.421,2.152,2.152,0,0,0,2.151,0,3.33,3.33,0,0,1,3.241,0,2.152,2.152,0,0,0,2.151,0,3.329,3.329,0,0,1,3.24,0,1.958,1.958,0,0,0,1.075.288.606.606,0,0,1,.133.016l.791-2.33.275-.808v.306C363.323,157.2,363.614,157.039,363.323,157.039Z" transform="translate(-2.013 -11.106)"/><g transform="translate(349.294 139.18)"><path class="b" d="M363.429,153.335a.521.521,0,0,1,.213.706l-2.2,4.1a.521.521,0,0,1-.705.212l-.062-.033a.522.522,0,0,1-.213-.706l2.2-4.1a.523.523,0,0,1,.707-.213Z" transform="translate(-359.812 -148.285)"/><path class="b" d="M364.239,146.935a.521.521,0,0,1-.349.65l-4.461,1.344a.521.521,0,0,1-.649-.349l-.02-.067a.543.543,0,0,1,.348-.65c.981-.41,4.19-1.57,4.19-1.57.275-.083.838.3.921.576Z" transform="translate(-358.738 -143.778)"/><path class="b" d="M365.929,156.394a.522.522,0,0,1,.213.706l-2.2,4.1a.522.522,0,0,1-.707.213l-.061-.033a.522.522,0,0,1-.213-.706l2.2-4.1a.522.522,0,0,1,.706-.213Z" transform="translate(-361.43 -150.265)"/><path class="b" d="M369.882,156.8a.523.523,0,0,1,.213.706l-2.2,4.1a.521.521,0,0,1-.706.212l-.061-.033a.522.522,0,0,1-.213-.706l2.2-4.1a.523.523,0,0,1,.706-.213Z" transform="translate(-363.99 -150.528)"/><path class="b" d="M374.368,156.074a.521.521,0,0,1,.212.706l-2.2,4.1a.521.521,0,0,1-.706.213l-.061-.032a.522.522,0,0,1-.212-.707l2.2-4.1a.521.521,0,0,1,.706-.213Z" transform="translate(-366.895 -150.058)"/><path class="b" d="M371.912,148.136a.651.651,0,0,1,.141.892l-1.345,2.505a.651.651,0,0,1-.822.375l-3.412-1.832a.652.652,0,0,1-.141-.892l1.346-2.505a.652.652,0,0,1,.822-.375Z" transform="translate(-363.586 -143.759)"/><path class="b" d="M365.34,151.077s.061-.59-.563-.4-.336-.533-.336-.533a16.886,16.886,0,0,1,1.885-.369C366.415,149.829,365.776,151.331,365.34,151.077Z" transform="translate(-362.388 -146.036)"/><rect class="b" width="3.731" height="3.772" transform="translate(4.572 3.287) rotate(-61.756)"/></g><path class="c" d="M363.828,166.214a.607.607,0,0,0-.133-.016,1.959,1.959,0,0,1-1.075-.288,3.329,3.329,0,0,0-3.24,0,2.152,2.152,0,0,1-2.151,0,3.33,3.33,0,0,0-3.241,0,2.152,2.152,0,0,1-2.151,0,3.087,3.087,0,0,0-1.62-.421.583.583,0,0,0-.266.063.453.453,0,0,0-.262.4.5.5,0,0,0,.528.461h.057l1.069,2.84H362.8l.726-2.136c.056,0,.113,0,.173,0a.5.5,0,0,0,.528-.46A.476.476,0,0,0,363.828,166.214Z" transform="translate(-3.585 -17.037)"/><g transform="translate(344.154 142.147)"><path class="d" d="M353.372,158.577h-5.164c-.478,0-1.339-.209-1.727-1.6-.715-2.576-2.294-8.651-2.31-8.712a.528.528,0,1,1,1.022-.265c.016.061,1.593,6.127,2.306,8.7.153.552.392.831.709.831h5.164a.528.528,0,0,1,0,1.056Z" transform="translate(-344.154 -147.6)"/></g><g transform="translate(352.844 142.147)"><path class="d" d="M374.5,158.577h-5.163a.528.528,0,1,1,0-1.056H374.5c.317,0,.556-.28.71-.831.712-2.568,2.29-8.634,2.305-8.7a.528.528,0,1,1,1.022.265c-.016.061-1.595,6.136-2.311,8.712C375.84,158.369,374.98,158.577,374.5,158.577Z" transform="translate(-368.81 -147.6)"/></g></g></svg>