<svg xmlns="http://www.w3.org/2000/svg" width="19.526" height="19.526" viewBox="0 0 19.526 19.526"><defs><style>.a{fill:#3d43ac;}</style></defs><path class="a" d="M13.017,9.763A3.255,3.255,0,0,0,9.763,6.509,3.255,3.255,0,0,0,6.509,9.763a3.255,3.255,0,0,0,3.254,3.254,3.255,3.255,0,0,0,3.254-3.254Zm1.754,0a4.991,4.991,0,0,1-5.008,5.008A4.991,4.991,0,0,1,4.754,9.763,4.991,4.991,0,0,1,9.763,4.754a4.991,4.991,0,0,1,5.008,5.008Zm1.373-5.212a1.169,1.169,0,1,1-2-.826,1.169,1.169,0,0,1,2,.826Zm-6.381-2.8L8.79,1.748q-.884-.007-1.341,0t-1.227.038a10.025,10.025,0,0,0-1.309.127A5.052,5.052,0,0,0,4,2.148,3.325,3.325,0,0,0,2.148,4a5.1,5.1,0,0,0-.235.909,10.025,10.025,0,0,0-.127,1.309q-.031.769-.038,1.227t0,1.341q.007.884.007.972t-.007.972q-.007.884,0,1.341T1.786,13.3a10.025,10.025,0,0,0,.127,1.309,5.071,5.071,0,0,0,.235.908A3.325,3.325,0,0,0,4,17.377a5.1,5.1,0,0,0,.909.235,10.025,10.025,0,0,0,1.309.127q.769.031,1.227.038t1.341,0l.972-.007.972.007q.884.007,1.341,0T13.3,17.74a10.024,10.024,0,0,0,1.309-.127,5.1,5.1,0,0,0,.909-.235,3.325,3.325,0,0,0,1.856-1.856,5.1,5.1,0,0,0,.235-.909,10.025,10.025,0,0,0,.127-1.309q.031-.769.038-1.227t0-1.341q-.007-.884-.007-.972t.007-.972q.007-.884,0-1.341t-.038-1.227a10.024,10.024,0,0,0-.127-1.309A5,5,0,0,0,17.377,4a3.325,3.325,0,0,0-1.856-1.856,5.1,5.1,0,0,0-.909-.235A10.025,10.025,0,0,0,13.3,1.786q-.769-.031-1.227-.038t-1.341,0l-.972.007Zm9.763,8.009q0,2.911-.063,4.03a5.963,5.963,0,0,1-1.576,4.093,5.963,5.963,0,0,1-4.093,1.576q-1.119.063-4.03.063t-4.03-.063A5.963,5.963,0,0,1,1.64,17.886,5.963,5.963,0,0,1,.063,13.793Q0,12.674,0,9.763t.063-4.03A5.963,5.963,0,0,1,1.64,1.64,5.963,5.963,0,0,1,5.733.063Q6.852,0,9.763,0t4.03.063A5.963,5.963,0,0,1,17.886,1.64a5.963,5.963,0,0,1,1.576,4.093Q19.526,6.852,19.526,9.763Z"/></svg>