<svg xmlns="http://www.w3.org/2000/svg" width="21.093" height="20.349" viewBox="0 0 21.093 20.349"><defs><style>.a{fill:#f9f9f9;}</style></defs><g transform="translate(0 -2.25)"><path class="a" d="M11.907,30.7a1.453,1.453,0,1,1-1.453-1.453A1.453,1.453,0,0,1,11.907,30.7Z" transform="translate(-3.186 -9.558)"/><path class="a" d="M27.657,30.7A1.453,1.453,0,1,1,26.2,29.25,1.453,1.453,0,0,1,27.657,30.7Z" transform="translate(-8.762 -9.558)"/><path class="a" d="M20.349,5.884H4.23l-.6-3.052a.727.727,0,0,0-.727-.581H0V3.7H2.311L5.087,17.657a.727.727,0,0,0,.727.581H18.9V16.785H6.41l-.6-2.907H18.9a.727.727,0,0,0,.727-.567L21.076,6.77a.727.727,0,0,0-.727-.886Zm-2.035,6.541H5.537L4.52,7.337H19.44Z" transform="translate(0 0)"/></g></svg>