<svg xmlns="http://www.w3.org/2000/svg" width="23.151" height="16.156" viewBox="0 0 23.151 16.156"><defs><style>.a{fill:#3d43ac;}</style></defs><path class="a" d="M22.879,7.054a26.411,26.411,0,0,1,.271,3.741V12.53l-.271,3.741a3.914,3.914,0,0,1-.922,2.277,3.913,3.913,0,0,1-2.277.976q-1.464.109-3.5.163t-3.334.054h-1.3q-6.018-.054-7.861-.217l-.434-.054-.7-.109-.678-.271-.7-.542-.542-.895-.3-1L.217,16.27A32.965,32.965,0,0,1,0,12.53V10.794L.217,7.054a3.914,3.914,0,0,1,.922-2.277A3.576,3.576,0,0,1,3.47,3.8q1.464-.109,3.47-.163t3.307-.054h1.3q4.879,0,8.132.217a3.508,3.508,0,0,1,2.277.976,2.233,2.233,0,0,1,.379.515,4.4,4.4,0,0,1,.271.6,3.877,3.877,0,0,1,.163.569,3.656,3.656,0,0,0,.109.434v.163Zm-8.186,4.771.759-.379L9.218,8.192V14.7Z" transform="translate(0 -3.584)"/></svg>